<?xml version="1.0" encoding="UTF-8"?>
<!DOCTYPE svg PUBLIC "-//W3C//DTD SVG 1.1//EN" "http://www.w3.org/Graphics/SVG/1.1/DTD/svg11.dtd">
<svg version="1.2" xmlns="http://www.w3.org/2000/svg" xmlns:xlink="http://www.w3.org/1999/xlink" x="0" y="0" width="1555" height="627" viewBox="0 0 1555 627">
<style type="text/css"><![CDATA[
text { font:12px Dialog; }
]]></style>
<rect x="-485" y="-485" width="2525" height="1597" style="fill:rgb(255,255,255);stroke:none" />
<clipPath id="clip1"><path d="M15,15 L1540,15 L1540,612 L15,612 Z M711,298 C706.5820313,298 703,301.5820313 703,306 L703,356 C703,360.4179688 706.5820313,364 711,364 L1080,364 C1084.4179688,364 1088,360.4179688 1088,356 L1088,306 C1088,301.5820313 1084.4179688,298 1080,298 Z M711,298 Z M711,298" /></clipPath>
<path d="M927.5078125,298 C966.9492188,175.9960938 1026.1132813,114.9960938 1105,114.9960938" style="fill:none;stroke:rgb(127,127,127)" clip-path="url(#clip1)" />
<clipPath id="clip2"><path d="M15,15 L1540,15 L1540,612 L15,612 Z M711,298 C706.5820313,298 703,301.5820313 703,306 L703,356 C703,360.4179688 706.5820313,364 711,364 L1080,364 C1084.4179688,364 1088,360.4179688 1088,356 L1088,306 C1088,301.5820313 1084.4179688,298 1080,298 Z M711,298 Z M711,298" /></clipPath>
<path d="M990.1640625,298 C1024.1289063,262.4804688 1075.0742188,244.71875 1143,244.71875" style="fill:none;stroke:rgb(127,127,127)" clip-path="url(#clip2)" />
<clipPath id="clip3"><path d="M15,15 L1540,15 L1540,612 L15,612 Z M711,298 C706.5820313,298 703,301.5820313 703,306 L703,356 C703,360.4179688 706.5820313,364 711,364 L1080,364 C1084.4179688,364 1088,360.4179688 1088,356 L1088,306 C1088,301.5820313 1084.4179688,298 1080,298 Z M711,298 Z M711,298" /></clipPath>
<path d="M1037.7578125,364 C1062.4765625,381.203125 1099.5585938,389.8046875 1149,389.8046875" style="fill:none;stroke:rgb(127,127,127)" clip-path="url(#clip3)" />
<clipPath id="clip4"><path d="M15,15 L1540,15 L1540,612 L15,612 Z M711,298 C706.5820313,298 703,301.5820313 703,306 L703,356 C703,360.4179688 706.5820313,364 711,364 L1080,364 C1084.4179688,364 1088,360.4179688 1088,356 L1088,306 C1088,301.5820313 1084.4179688,298 1080,298 Z M711,298 Z M711,298" /></clipPath>
<path d="M945.1796875,364 C986.25,445.84375 1047.859375,486.765625 1130,486.765625" style="fill:none;stroke:rgb(127,127,127)" clip-path="url(#clip4)" />
<clipPath id="clip5"><path d="M15,15 L1540,15 L1540,612 L15,612 Z M711,298 C706.5820313,298 703,301.5820313 703,306 L703,356 C703,360.4179688 706.5820313,364 711,364 L1080,364 C1084.4179688,364 1088,360.4179688 1088,356 L1088,306 C1088,301.5820313 1084.4179688,298 1080,298 Z M711,298 Z M711,298" /></clipPath>
<path d="M925.5976563,364 C965.4648438,495.1289063 1025.265625,560.6953125 1105,560.6953125" style="fill:none;stroke:rgb(127,127,127)" clip-path="url(#clip5)" />
<clipPath id="clip6"><path d="M15,15 L1540,15 L1540,612 L15,612 Z M711,298 C706.5820313,298 703,301.5820313 703,306 L703,356 C703,360.4179688 706.5820313,364 711,364 L1080,364 C1084.4179688,364 1088,360.4179688 1088,356 L1088,306 C1088,301.5820313 1084.4179688,298 1080,298 Z M711,298 Z M711,298" /></clipPath>
<path d="M870.703125,364 C832.9921875,514.5585938 776.421875,589.8359375 701,589.8359375" style="fill:none;stroke:rgb(127,127,127)" clip-path="url(#clip6)" />
<clipPath id="clip7"><path d="M15,15 L1540,15 L1540,612 L15,612 Z M711,298 C706.5820313,298 703,301.5820313 703,306 L703,356 C703,360.4179688 706.5820313,364 711,364 L1080,364 C1084.4179688,364 1088,360.4179688 1088,356 L1088,306 C1088,301.5820313 1084.4179688,298 1080,298 Z M711,298 Z M711,298" /></clipPath>
<path d="M855.0585938,364 C813.7109375,465.2109375 751.6914063,515.8164063 669,515.8164063" style="fill:none;stroke:rgb(127,127,127)" clip-path="url(#clip7)" />
<clipPath id="clip8"><path d="M15,15 L1540,15 L1540,612 L15,612 Z M711,298 C706.5820313,298 703,301.5820313 703,306 L703,356 C703,360.4179688 706.5820313,364 711,364 L1080,364 C1084.4179688,364 1088,360.4179688 1088,356 L1088,306 C1088,301.5820313 1084.4179688,298 1080,298 Z M711,298 Z M711,298" /></clipPath>
<path d="M822.3164063,364 C784.0234375,415.8007813 726.5859375,441.703125 650,441.703125" style="fill:none;stroke:rgb(127,127,127)" clip-path="url(#clip8)" />
<clipPath id="clip9"><path d="M15,15 L1540,15 L1540,612 L15,612 Z M711,298 C706.5820313,298 703,301.5820313 703,306 L703,356 C703,360.4179688 706.5820313,364 711,364 L1080,364 C1084.4179688,364 1088,360.4179688 1088,356 L1088,306 C1088,301.5820313 1084.4179688,298 1080,298 Z M711,298 Z M711,298" /></clipPath>
<path d="M703,352.8867188 C689.2226563,357.5859375 668.5546875,359.9335938 641,359.9335938" style="fill:none;stroke:rgb(127,127,127)" clip-path="url(#clip9)" />
<clipPath id="clip10"><path d="M15,15 L1540,15 L1540,612 L15,612 Z M711,298 C706.5820313,298 703,301.5820313 703,306 L703,356 C703,360.4179688 706.5820313,364 711,364 L1080,364 C1084.4179688,364 1088,360.4179688 1088,356 L1088,306 C1088,301.5820313 1084.4179688,298 1080,298 Z M711,298 Z M711,298" /></clipPath>
<path d="M815.703125,298 C779.1015625,252.5898438 724.203125,229.8867188 651,229.8867188" style="fill:none;stroke:rgb(127,127,127)" clip-path="url(#clip10)" />
<clipPath id="clip11"><path d="M15,15 L1540,15 L1540,612 L15,612 Z M711,298 C706.5820313,298 703,301.5820313 703,306 L703,356 C703,360.4179688 706.5820313,364 711,364 L1080,364 C1084.4179688,364 1088,360.4179688 1088,356 L1088,306 C1088,301.5820313 1084.4179688,298 1080,298 Z M711,298 Z M711,298" /></clipPath>
<path d="M869.3945313,298 C831.9726563,156.0859375 775.84375,85.1289063 701,85.1289063" style="fill:none;stroke:rgb(127,127,127)" clip-path="url(#clip11)" />
<clipPath id="clip12"><path d="M701,296 L1091,296 L1091,367 L701,367 L701,296 Z" /></clipPath>
<path d="M711,298 C706.5820313,298 703,301.5820313 703,306 L703,356 C703,360.4179688 706.5820313,364 711,364 L1080,364 C1084.4179688,364 1088,360.4179688 1088,356 L1088,306 C1088,301.5820313 1084.4179688,298 1080,298 Z M711,298" style="fill:rgb(202,221,254);stroke:none" clip-path="url(#clip12)" />
<clipPath id="clip13"><path d="M701,296 L1091,296 L1091,367 L701,367 L701,296 Z" /></clipPath>
<path d="M711,298 C706.5820313,298 703,301.5820313 703,306 L703,356 C703,360.4179688 706.5820313,364 711,364 L1080,364 C1084.4179688,364 1088,360.4179688 1088,356 L1088,306 C1088,301.5820313 1084.4179688,298 1080,298 Z M711,298" style="fill:none;stroke:rgb(61,83,127)" clip-path="url(#clip13)" />
<text x="736" y="335" style="font:18px Open Sans">Peculiarities of Cyberspace</text>
<clipPath id="clip14"><path d="M1104,59 L1474,59 L1474,145 L1104,145 Z M1110,94 C1107.2382813,94 1105,96.2382813 1105,99 L1105,130 C1105,132.7617188 1107.2382813,135 1110,135 L1298,135 C1300.7617188,135 1303,132.7617188 1303,130 L1303,99 C1303,96.2382813 1300.7617188,94 1298,94 Z M1110,94 Z M1110,94" /></clipPath>
<path d="M1316,115.0585938 L1316,90 C1316,87.7929688 1317.7929688,86 1320,86 L1325,86" style="fill:none;stroke:rgb(127,127,127)" clip-path="url(#clip14)" />
<clipPath id="clip15"><path d="M1104,59 L1474,59 L1474,145 L1104,145 Z M1110,94 C1107.2382813,94 1105,96.2382813 1105,99 L1105,130 C1105,132.7617188 1107.2382813,135 1110,135 L1298,135 C1300.7617188,135 1303,132.7617188 1303,130 L1303,99 C1303,96.2382813 1300.7617188,94 1298,94 Z M1110,94 Z M1110,94" /></clipPath>
<path d="M1316,115.0585938 C1316,115.0273438 1317.7929688,115 1320,115 L1325,115" style="fill:none;stroke:rgb(127,127,127)" clip-path="url(#clip15)" />
<clipPath id="clip16"><path d="M1104,59 L1474,59 L1474,145 L1104,145 Z M1110,94 C1107.2382813,94 1105,96.2382813 1105,99 L1105,130 C1105,132.7617188 1107.2382813,135 1110,135 L1298,135 C1300.7617188,135 1303,132.7617188 1303,130 L1303,99 C1303,96.2382813 1300.7617188,94 1298,94 Z M1110,94 Z M1110,94" /></clipPath>
<path d="M1316,115.0585938 L1316,140 C1316,142.2070313 1317.7929688,144 1320,144 L1325,144" style="fill:none;stroke:rgb(127,127,127)" clip-path="url(#clip16)" />
<clipPath id="clip17"><path d="M1103,58 L1475,58 L1475,146 L1103,146 L1103,58 Z" /></clipPath>
<path d="M1303,114.9960938 L1316,115.0585938" style="fill:none;stroke:rgb(127,127,127)" clip-path="url(#clip17)" />
<clipPath id="clip18"><path d="M1103,92 L1306,92 L1306,138 L1103,138 L1103,92 Z" /></clipPath>
<path d="M1110,94 C1107.2382813,94 1105,96.2382813 1105,99 L1105,130 C1105,132.7617188 1107.2382813,135 1110,135 L1298,135 C1300.7617188,135 1303,132.7617188 1303,130 L1303,99 C1303,96.2382813 1300.7617188,94 1298,94 Z M1110,94" style="fill:rgb(254,244,236);stroke:none" clip-path="url(#clip18)" />
<clipPath id="clip19"><path d="M1103,92 L1306,92 L1306,138 L1103,138 L1103,92 Z" /></clipPath>
<path d="M1110,94 C1107.2382813,94 1105,96.2382813 1105,99 L1105,130 C1105,132.7617188 1107.2382813,135 1110,135 L1298,135 C1300.7617188,135 1303,132.7617188 1303,130 L1303,99 C1303,96.2382813 1300.7617188,94 1298,94 Z M1110,94" style="fill:none;stroke:rgb(141,134,126)" clip-path="url(#clip19)" />
<text x="1118" y="117" style="font:13px Open Sans">Technology (enabler)</text>
<clipPath id="clip20"><path d="M1304,109 L1317,109 L1317,122 L1304,122 L1304,109 Z" /></clipPath>
<path d="M1314.5,115 C1314.5,112.515625 1312.484375,110.5 1310,110.5 C1307.515625,110.5 1305.5,112.515625 1305.5,115 C1305.5,117.484375 1307.515625,119.5 1310,119.5 C1312.484375,119.5 1314.5,117.484375 1314.5,115 Z M1314.5,115" style="fill:rgb(250,250,250);stroke:none" clip-path="url(#clip20)" />
<clipPath id="clip21"><path d="M1304,109 L1317,109 L1317,122 L1304,122 L1304,109 Z" /></clipPath>
<path d="M1314.5,115 C1314.5,112.515625 1312.484375,110.5 1310,110.5 C1307.515625,110.5 1305.5,112.515625 1305.5,115 C1305.5,117.484375 1307.515625,119.5 1310,119.5 C1312.484375,119.5 1314.5,117.484375 1314.5,115 Z M1314.5,115" style="fill:none;stroke:rgb(127,127,127)" clip-path="url(#clip21)" />
<clipPath id="clip22"><path d="M1304,109 L1317,109 L1317,122 L1304,122 L1304,109 Z" /></clipPath>
<path d="M1308,115 L1312,115" style="fill:none;stroke:rgb(150,160,200)" clip-path="url(#clip22)" />
<clipPath id="clip23"><path d="M1323,58 L1467,58 L1467,88 L1323,88 L1323,58 Z" /></clipPath>
<path d="M1325,86 L1464,86 Z M1325,86" style="fill:none;stroke:rgb(127,127,127)" clip-path="url(#clip23)" />
<text x="1335" y="75" style="font:10px Open Sans">Telecommunication</text>
<clipPath id="clip24"><path d="M1323,87 L1442,87 L1442,117 L1323,117 L1323,87 Z" /></clipPath>
<path d="M1325,115 L1439,115 Z M1325,115" style="fill:none;stroke:rgb(127,127,127)" clip-path="url(#clip24)" />
<text x="1335" y="104" style="font:10px Open Sans">Social networks</text>
<clipPath id="clip25"><path d="M1323,116 L1475,116 L1475,146 L1323,146 L1323,116 Z" /></clipPath>
<path d="M1325,144 L1472,144 Z M1325,144" style="fill:none;stroke:rgb(127,127,127)" clip-path="url(#clip25)" />
<text x="1335" y="133" style="font:10px Open Sans">Media (as a business)</text>
<clipPath id="clip26"><path d="M1142,175 L1407,175 L1407,290 L1142,290 Z M1148,224 C1145.2382813,224 1143,226.2382813 1143,229 L1143,260 C1143,262.7617188 1145.2382813,265 1148,265 L1226,265 C1228.7617188,265 1231,262.7617188 1231,260 L1231,229 C1231,226.2382813 1228.7617188,224 1226,224 Z M1148,224 Z M1148,224" /></clipPath>
<path d="M1244,244.7851563 L1244,206 C1244,203.7929688 1245.7929688,202 1248,202 L1253,202" style="fill:none;stroke:rgb(127,127,127)" clip-path="url(#clip26)" />
<clipPath id="clip27"><path d="M1142,175 L1407,175 L1407,290 L1142,290 Z M1148,224 C1145.2382813,224 1143,226.2382813 1143,229 L1143,260 C1143,262.7617188 1145.2382813,265 1148,265 L1226,265 C1228.7617188,265 1231,262.7617188 1231,260 L1231,229 C1231,226.2382813 1228.7617188,224 1226,224 Z M1148,224 Z M1148,224" /></clipPath>
<path d="M1244,244.7851563 L1244,235 C1244,232.7929688 1245.7929688,231 1248,231 L1253,231" style="fill:none;stroke:rgb(127,127,127)" clip-path="url(#clip27)" />
<clipPath id="clip28"><path d="M1142,175 L1407,175 L1407,290 L1142,290 Z M1148,224 C1145.2382813,224 1143,226.2382813 1143,229 L1143,260 C1143,262.7617188 1145.2382813,265 1148,265 L1226,265 C1228.7617188,265 1231,262.7617188 1231,260 L1231,229 C1231,226.2382813 1228.7617188,224 1226,224 Z M1148,224 Z M1148,224" /></clipPath>
<path d="M1244,244.7851563 L1244,256 C1244,258.2070313 1245.7929688,260 1248,260 L1253,260" style="fill:none;stroke:rgb(127,127,127)" clip-path="url(#clip28)" />
<clipPath id="clip29"><path d="M1142,175 L1407,175 L1407,290 L1142,290 Z M1148,224 C1145.2382813,224 1143,226.2382813 1143,229 L1143,260 C1143,262.7617188 1145.2382813,265 1148,265 L1226,265 C1228.7617188,265 1231,262.7617188 1231,260 L1231,229 C1231,226.2382813 1228.7617188,224 1226,224 Z M1148,224 Z M1148,224" /></clipPath>
<path d="M1244,244.7851563 L1244,285 C1244,287.2070313 1245.7929688,289 1248,289 L1253,289" style="fill:none;stroke:rgb(127,127,127)" clip-path="url(#clip29)" />
<clipPath id="clip30"><path d="M1141,174 L1408,174 L1408,291 L1141,291 L1141,174 Z" /></clipPath>
<path d="M1231,244.71875 L1244,244.7851563" style="fill:none;stroke:rgb(127,127,127)" clip-path="url(#clip30)" />
<clipPath id="clip31"><path d="M1141,222 L1234,222 L1234,268 L1141,268 L1141,222 Z" /></clipPath>
<path d="M1148,224 C1145.2382813,224 1143,226.2382813 1143,229 L1143,260 C1143,262.7617188 1145.2382813,265 1148,265 L1226,265 C1228.7617188,265 1231,262.7617188 1231,260 L1231,229 C1231,226.2382813 1228.7617188,224 1226,224 Z M1148,224" style="fill:rgb(254,244,236);stroke:none" clip-path="url(#clip31)" />
<clipPath id="clip32"><path d="M1141,222 L1234,222 L1234,268 L1141,268 L1141,222 Z" /></clipPath>
<path d="M1148,224 C1145.2382813,224 1143,226.2382813 1143,229 L1143,260 C1143,262.7617188 1145.2382813,265 1148,265 L1226,265 C1228.7617188,265 1231,262.7617188 1231,260 L1231,229 C1231,226.2382813 1228.7617188,224 1226,224 Z M1148,224" style="fill:none;stroke:rgb(141,134,126)" clip-path="url(#clip32)" />
<text x="1156" y="247" style="font:13px Open Sans">Human</text>
<clipPath id="clip33"><path d="M1232,239 L1245,239 L1245,252 L1232,252 L1232,239 Z" /></clipPath>
<path d="M1242.5,245 C1242.5,242.515625 1240.484375,240.5 1238,240.5 C1235.515625,240.5 1233.5,242.515625 1233.5,245 C1233.5,247.484375 1235.515625,249.5 1238,249.5 C1240.484375,249.5 1242.5,247.484375 1242.5,245 Z M1242.5,245" style="fill:rgb(250,250,250);stroke:none" clip-path="url(#clip33)" />
<clipPath id="clip34"><path d="M1232,239 L1245,239 L1245,252 L1232,252 L1232,239 Z" /></clipPath>
<path d="M1242.5,245 C1242.5,242.515625 1240.484375,240.5 1238,240.5 C1235.515625,240.5 1233.5,242.515625 1233.5,245 C1233.5,247.484375 1235.515625,249.5 1238,249.5 C1240.484375,249.5 1242.5,247.484375 1242.5,245 Z M1242.5,245" style="fill:none;stroke:rgb(127,127,127)" clip-path="url(#clip34)" />
<clipPath id="clip35"><path d="M1232,239 L1245,239 L1245,252 L1232,252 L1232,239 Z" /></clipPath>
<path d="M1236,245 L1240,245" style="fill:none;stroke:rgb(150,160,200)" clip-path="url(#clip35)" />
<clipPath id="clip36"><path d="M1251,174 L1324,174 L1324,204 L1251,204 L1251,174 Z" /></clipPath>
<path d="M1253,202 L1321,202 Z M1253,202" style="fill:none;stroke:rgb(127,127,127)" clip-path="url(#clip36)" />
<text x="1263" y="191" style="font:10px Open Sans">Religion</text>
<clipPath id="clip37"><path d="M1251,203 L1408,203 L1408,233 L1251,233 L1251,203 Z" /></clipPath>
<path d="M1253,231 L1405,231 Z M1253,231" style="fill:none;stroke:rgb(127,127,127)" clip-path="url(#clip37)" />
<text x="1263" y="220" style="font:10px Open Sans">Ethnic-cultural groups</text>
<clipPath id="clip38"><path d="M1251,232 L1355,232 L1355,262 L1251,262 L1251,232 Z" /></clipPath>
<path d="M1253,260 L1352,260 Z M1253,260" style="fill:none;stroke:rgb(127,127,127)" clip-path="url(#clip38)" />
<text x="1263" y="249" style="font:10px Open Sans">Social classes</text>
<clipPath id="clip39"><path d="M1251,261 L1347,261 L1347,291 L1251,291 L1251,261 Z" /></clipPath>
<path d="M1253,289 L1344,289 Z M1253,289" style="fill:none;stroke:rgb(127,127,127)" clip-path="url(#clip39)" />
<text x="1263" y="278" style="font:10px Open Sans">Professions</text>
<clipPath id="clip40"><path d="M1148,320 L1540,320 L1540,435 L1148,435 Z M1154,369 C1151.2382813,369 1149,371.2382813 1149,374 L1149,405 C1149,407.7617188 1151.2382813,410 1154,410 L1266,410 C1268.7617188,410 1271,407.7617188 1271,405 L1271,374 C1271,371.2382813 1268.7617188,369 1266,369 Z M1154,369 Z M1154,369" /></clipPath>
<path d="M1284,389.8710938 L1284,351 C1284,348.7929688 1285.7929688,347 1288,347 L1293,347" style="fill:none;stroke:rgb(127,127,127)" clip-path="url(#clip40)" />
<clipPath id="clip41"><path d="M1148,320 L1540,320 L1540,435 L1148,435 Z M1154,369 C1151.2382813,369 1149,371.2382813 1149,374 L1149,405 C1149,407.7617188 1151.2382813,410 1154,410 L1266,410 C1268.7617188,410 1271,407.7617188 1271,405 L1271,374 C1271,371.2382813 1268.7617188,369 1266,369 Z M1154,369 Z M1154,369" /></clipPath>
<path d="M1284,389.8710938 L1284,380 C1284,377.7929688 1285.7929688,376 1288,376 L1293,376" style="fill:none;stroke:rgb(127,127,127)" clip-path="url(#clip41)" />
<clipPath id="clip42"><path d="M1148,320 L1540,320 L1540,435 L1148,435 Z M1154,369 C1151.2382813,369 1149,371.2382813 1149,374 L1149,405 C1149,407.7617188 1151.2382813,410 1154,410 L1266,410 C1268.7617188,410 1271,407.7617188 1271,405 L1271,374 C1271,371.2382813 1268.7617188,369 1266,369 Z M1154,369 Z M1154,369" /></clipPath>
<path d="M1284,389.8710938 L1284,401 C1284,403.2070313 1285.7929688,405 1288,405 L1293,405" style="fill:none;stroke:rgb(127,127,127)" clip-path="url(#clip42)" />
<clipPath id="clip43"><path d="M1148,320 L1540,320 L1540,435 L1148,435 Z M1154,369 C1151.2382813,369 1149,371.2382813 1149,374 L1149,405 C1149,407.7617188 1151.2382813,410 1154,410 L1266,410 C1268.7617188,410 1271,407.7617188 1271,405 L1271,374 C1271,371.2382813 1268.7617188,369 1266,369 Z M1154,369 Z M1154,369" /></clipPath>
<path d="M1284,389.8710938 L1284,430 C1284,432.2070313 1285.7929688,434 1288,434 L1293,434" style="fill:none;stroke:rgb(127,127,127)" clip-path="url(#clip43)" />
<clipPath id="clip44"><path d="M1147,319 L1541,319 L1541,436 L1147,436 L1147,319 Z" /></clipPath>
<path d="M1271,389.8046875 L1284,389.8710938" style="fill:none;stroke:rgb(127,127,127)" clip-path="url(#clip44)" />
<clipPath id="clip45"><path d="M1147,367 L1274,367 L1274,413 L1147,413 L1147,367 Z" /></clipPath>
<path d="M1154,369 C1151.2382813,369 1149,371.2382813 1149,374 L1149,405 C1149,407.7617188 1151.2382813,410 1154,410 L1266,410 C1268.7617188,410 1271,407.7617188 1271,405 L1271,374 C1271,371.2382813 1268.7617188,369 1266,369 Z M1154,369" style="fill:rgb(254,244,236);stroke:none" clip-path="url(#clip45)" />
<clipPath id="clip46"><path d="M1147,367 L1274,367 L1274,413 L1147,413 L1147,367 Z" /></clipPath>
<path d="M1154,369 C1151.2382813,369 1149,371.2382813 1149,374 L1149,405 C1149,407.7617188 1151.2382813,410 1154,410 L1266,410 C1268.7617188,410 1271,407.7617188 1271,405 L1271,374 C1271,371.2382813 1268.7617188,369 1266,369 Z M1154,369" style="fill:none;stroke:rgb(141,134,126)" clip-path="url(#clip46)" />
<text x="1162" y="391" style="font:13px Open Sans">Cyberspace</text>
<clipPath id="clip47"><path d="M1272,384 L1285,384 L1285,397 L1272,397 L1272,384 Z" /></clipPath>
<path d="M1282.5,390 C1282.5,387.515625 1280.484375,385.5 1278,385.5 C1275.515625,385.5 1273.5,387.515625 1273.5,390 C1273.5,392.484375 1275.515625,394.5 1278,394.5 C1280.484375,394.5 1282.5,392.484375 1282.5,390 Z M1282.5,390" style="fill:rgb(250,250,250);stroke:none" clip-path="url(#clip47)" />
<clipPath id="clip48"><path d="M1272,384 L1285,384 L1285,397 L1272,397 L1272,384 Z" /></clipPath>
<path d="M1282.5,390 C1282.5,387.515625 1280.484375,385.5 1278,385.5 C1275.515625,385.5 1273.5,387.515625 1273.5,390 C1273.5,392.484375 1275.515625,394.5 1278,394.5 C1280.484375,394.5 1282.5,392.484375 1282.5,390 Z M1282.5,390" style="fill:none;stroke:rgb(127,127,127)" clip-path="url(#clip48)" />
<clipPath id="clip49"><path d="M1272,384 L1285,384 L1285,397 L1272,397 L1272,384 Z" /></clipPath>
<path d="M1276,390 L1280,390" style="fill:none;stroke:rgb(150,160,200)" clip-path="url(#clip49)" />
<clipPath id="clip50"><path d="M1291,319 L1360,319 L1360,349 L1291,349 L1291,319 Z" /></clipPath>
<path d="M1293,347 L1357,347 Z M1293,347" style="fill:none;stroke:rgb(127,127,127)" clip-path="url(#clip50)" />
<text x="1303" y="336" style="font:10px Open Sans">Illusion</text>
<clipPath id="clip51"><path d="M1291,348 L1541,348 L1541,378 L1291,378 L1291,348 Z" /></clipPath>
<path d="M1293,376 L1538,376 Z M1293,376" style="fill:none;stroke:rgb(127,127,127)" clip-path="url(#clip51)" />
<text x="1303" y="364" style="font:10px Open Sans">Reality that can be localized ‘nowhere’</text>
<clipPath id="clip52"><path d="M1291,377 L1483,377 L1483,407 L1291,407 L1291,377 Z" /></clipPath>
<path d="M1293,405 L1480,405 Z M1293,405" style="fill:none;stroke:rgb(127,127,127)" clip-path="url(#clip52)" />
<text x="1303" y="393" style="font:10px Open Sans">Presence is felt ‘everywhere’</text>
<clipPath id="clip53"><path d="M1291,406 L1469,406 L1469,436 L1291,436 L1291,406 Z" /></clipPath>
<path d="M1293,434 L1466,434 Z M1293,434" style="fill:none;stroke:rgb(127,127,127)" clip-path="url(#clip53)" />
<text x="1303" y="422" style="font:10px Open Sans">New form of social reality</text>
<clipPath id="clip54"><path d="M1128,464 L1239,464 L1239,510 L1128,510 L1128,464 Z" /></clipPath>
<path d="M1135,466 C1132.2382813,466 1130,468.2382813 1130,471 L1130,502 C1130,504.7617188 1132.2382813,507 1135,507 L1231,507 C1233.7617188,507 1236,504.7617188 1236,502 L1236,471 C1236,468.2382813 1233.7617188,466 1231,466 Z M1135,466" style="fill:rgb(254,244,236);stroke:none" clip-path="url(#clip54)" />
<clipPath id="clip55"><path d="M1128,464 L1239,464 L1239,510 L1128,510 L1128,464 Z" /></clipPath>
<path d="M1135,466 C1132.2382813,466 1130,468.2382813 1130,471 L1130,502 C1130,504.7617188 1132.2382813,507 1135,507 L1231,507 C1233.7617188,507 1236,504.7617188 1236,502 L1236,471 C1236,468.2382813 1233.7617188,466 1231,466 Z M1135,466" style="fill:none;stroke:rgb(141,134,126)" clip-path="url(#clip55)" />
<text x="1143" y="488" style="font:13px Open Sans">Terrorism</text>
<clipPath id="clip56"><path d="M1103,538 L1185,538 L1185,584 L1103,584 L1103,538 Z" /></clipPath>
<path d="M1110,540 C1107.2382813,540 1105,542.2382813 1105,545 L1105,576 C1105,578.7617188 1107.2382813,581 1110,581 L1177,581 C1179.7617188,581 1182,578.7617188 1182,576 L1182,545 C1182,542.2382813 1179.7617188,540 1177,540 Z M1110,540" style="fill:rgb(254,244,236);stroke:none" clip-path="url(#clip56)" />
<clipPath id="clip57"><path d="M1103,538 L1185,538 L1185,584 L1103,584 L1103,538 Z" /></clipPath>
<path d="M1110,540 C1107.2382813,540 1105,542.2382813 1105,545 L1105,576 C1105,578.7617188 1107.2382813,581 1110,581 L1177,581 C1179.7617188,581 1182,578.7617188 1182,576 L1182,545 C1182,542.2382813 1179.7617188,540 1177,540 Z M1110,540" style="fill:none;stroke:rgb(141,134,126)" clip-path="url(#clip57)" />
<text x="1118" y="562" style="font:13px Open Sans">Death</text>
<clipPath id="clip58"><path d="M565,567 L704,567 L704,613 L565,613 L565,567 Z" /></clipPath>
<path d="M572,569 C569.2382813,569 567,571.2382813 567,574 L567,605 C567,607.7617188 569.2382813,610 572,610 L696,610 C698.7617188,610 701,607.7617188 701,605 L701,574 C701,571.2382813 698.7617188,569 696,569 Z M572,569" style="fill:rgb(254,244,236);stroke:none" clip-path="url(#clip58)" />
<clipPath id="clip59"><path d="M565,567 L704,567 L704,613 L565,613 L565,567 Z" /></clipPath>
<path d="M572,569 C569.2382813,569 567,571.2382813 567,574 L567,605 C567,607.7617188 569.2382813,610 572,610 L696,610 C698.7617188,610 701,607.7617188 701,605 L701,574 C701,571.2382813 698.7617188,569 696,569 Z M572,569" style="fill:none;stroke:rgb(141,134,126)" clip-path="url(#clip59)" />
<text x="581" y="591" style="font:13px Open Sans">Love and sex</text>
<clipPath id="clip60"><path d="M541,493 L672,493 L672,539 L541,539 L541,493 Z" /></clipPath>
<path d="M548,495 C545.2382813,495 543,497.2382813 543,500 L543,531 C543,533.7617188 545.2382813,536 548,536 L664,536 C666.7617188,536 669,533.7617188 669,531 L669,500 C669,497.2382813 666.7617188,495 664,495 Z M548,495" style="fill:rgb(254,244,236);stroke:none" clip-path="url(#clip60)" />
<clipPath id="clip61"><path d="M541,493 L672,493 L672,539 L541,539 L541,493 Z" /></clipPath>
<path d="M548,495 C545.2382813,495 543,497.2382813 543,500 L543,531 C543,533.7617188 545.2382813,536 548,536 L664,536 C666.7617188,536 669,533.7617188 669,531 L669,500 C669,497.2382813 666.7617188,495 664,495 Z M548,495" style="fill:none;stroke:rgb(141,134,126)" clip-path="url(#clip61)" />
<text x="557" y="517" style="font:13px Open Sans">Capitalism ..</text>
<clipPath id="clip62"><path d="M567,419 L653,419 L653,465 L567,465 L567,419 Z" /></clipPath>
<path d="M574,421 C571.2382813,421 569,423.2382813 569,426 L569,457 C569,459.7617188 571.2382813,462 574,462 L645,462 C647.7617188,462 650,459.7617188 650,457 L650,426 C650,423.2382813 647.7617188,421 645,421 Z M574,421" style="fill:rgb(254,244,236);stroke:none" clip-path="url(#clip62)" />
<clipPath id="clip63"><path d="M567,419 L653,419 L653,465 L567,465 L567,419 Z" /></clipPath>
<path d="M574,421 C571.2382813,421 569,423.2382813 569,426 L569,457 C569,459.7617188 571.2382813,462 574,462 L645,462 C647.7617188,462 650,459.7617188 650,457 L650,426 C650,423.2382813 647.7617188,421 645,421 Z M574,421" style="fill:none;stroke:rgb(141,134,126)" clip-path="url(#clip63)" />
<text x="583" y="443" style="font:13px Open Sans">Politics</text>
<clipPath id="clip64"><path d="M15,304 L643,304 L643,390 L15,390 Z M471,339 C468.2382813,339 466,341.2382813 466,344 L466,375 C466,377.7617188 468.2382813,380 471,380 L636,380 C638.7617188,380 641,377.7617188 641,375 L641,344 C641,341.2382813 638.7617188,339 636,339 Z M471,339 Z M471,339" /></clipPath>
<path d="M453,360.0039063 L453,335 C453,332.7929688 451.2070313,331 449,331 L444,331" style="fill:none;stroke:rgb(127,127,127)" clip-path="url(#clip64)" />
<clipPath id="clip65"><path d="M15,304 L643,304 L643,390 L15,390 Z M471,339 C468.2382813,339 466,341.2382813 466,344 L466,375 C466,377.7617188 468.2382813,380 471,380 L636,380 C638.7617188,380 641,377.7617188 641,375 L641,344 C641,341.2382813 638.7617188,339 636,339 Z M471,339 Z M471,339" /></clipPath>
<path d="M453,360.0039063 C453,360.0039063 451.2070313,360 449,360 L444,360" style="fill:none;stroke:rgb(127,127,127)" clip-path="url(#clip65)" />
<clipPath id="clip66"><path d="M15,304 L643,304 L643,390 L15,390 Z M471,339 C468.2382813,339 466,341.2382813 466,344 L466,375 C466,377.7617188 468.2382813,380 471,380 L636,380 C638.7617188,380 641,377.7617188 641,375 L641,344 C641,341.2382813 638.7617188,339 636,339 Z M471,339 Z M471,339" /></clipPath>
<path d="M453,360.0039063 L453,385 C453,387.2070313 451.2070313,389 449,389 L444,389" style="fill:none;stroke:rgb(127,127,127)" clip-path="url(#clip66)" />
<clipPath id="clip67"><path d="M14,303 L644,303 L644,391 L14,391 L14,303 Z" /></clipPath>
<path d="M466,359.9414063 L453,360.0039063" style="fill:none;stroke:rgb(127,127,127)" clip-path="url(#clip67)" />
<clipPath id="clip68"><path d="M464,337 L644,337 L644,383 L464,383 L464,337 Z" /></clipPath>
<path d="M471,339 C468.2382813,339 466,341.2382813 466,344 L466,375 C466,377.7617188 468.2382813,380 471,380 L636,380 C638.7617188,380 641,377.7617188 641,375 L641,344 C641,341.2382813 638.7617188,339 636,339 Z M471,339" style="fill:rgb(254,244,236);stroke:none" clip-path="url(#clip68)" />
<clipPath id="clip69"><path d="M464,337 L644,337 L644,383 L464,383 L464,337 Z" /></clipPath>
<path d="M471,339 C468.2382813,339 466,341.2382813 466,344 L466,375 C466,377.7617188 468.2382813,380 471,380 L636,380 C638.7617188,380 641,377.7617188 641,375 L641,344 C641,341.2382813 638.7617188,339 636,339 Z M471,339" style="fill:none;stroke:rgb(141,134,126)" clip-path="url(#clip69)" />
<text x="480" y="361" style="font:13px Open Sans">Virtual community</text>
<clipPath id="clip70"><path d="M453,354 L466,354 L466,367 L453,367 L453,354 Z" /></clipPath>
<path d="M463.5,360 C463.5,357.515625 461.484375,355.5 459,355.5 C456.515625,355.5 454.5,357.515625 454.5,360 C454.5,362.484375 456.515625,364.5 459,364.5 C461.484375,364.5 463.5,362.484375 463.5,360 Z M463.5,360" style="fill:rgb(250,250,250);stroke:none" clip-path="url(#clip70)" />
<clipPath id="clip71"><path d="M453,354 L466,354 L466,367 L453,367 L453,354 Z" /></clipPath>
<path d="M463.5,360 C463.5,357.515625 461.484375,355.5 459,355.5 C456.515625,355.5 454.5,357.515625 454.5,360 C454.5,362.484375 456.515625,364.5 459,364.5 C461.484375,364.5 463.5,362.484375 463.5,360 Z M463.5,360" style="fill:none;stroke:rgb(127,127,127)" clip-path="url(#clip71)" />
<clipPath id="clip72"><path d="M453,354 L466,354 L466,367 L453,367 L453,354 Z" /></clipPath>
<path d="M457,360 L461,360" style="fill:none;stroke:rgb(150,160,200)" clip-path="url(#clip72)" />
<clipPath id="clip73"><path d="M307,303 L447,303 L447,333 L307,333 L307,303 Z" /></clipPath>
<path d="M309,331 L444,331 Z M309,331" style="fill:none;stroke:rgb(127,127,127)" clip-path="url(#clip73)" />
<text x="320" y="320" style="font:10px Open Sans">Social aggregations</text>
<clipPath id="clip74"><path d="M14,332 L447,332 L447,362 L14,362 L14,332 Z" /></clipPath>
<path d="M16,360 L444,360 Z M16,360" style="fill:none;stroke:rgb(127,127,127)" clip-path="url(#clip74)" />
<text x="27" y="348" style="font:10px Open Sans">If people define networks as real, they are real in their consequences</text>
<clipPath id="clip75"><path d="M85,361 L447,361 L447,391 L85,391 L85,361 Z" /></clipPath>
<path d="M87,389 L444,389 Z M87,389" style="fill:none;stroke:rgb(127,127,127)" clip-path="url(#clip75)" />
<text x="98" y="377" style="font:10px Open Sans">Basis of all our virtual experiences is our human fantasy.</text>
<clipPath id="clip76"><path d="M330,160 L653,160 L653,275 L330,275 Z M501,209 C498.2382813,209 496,211.2382813 496,214 L496,245 C496,247.7617188 498.2382813,250 501,250 L646,250 C648.7617188,250 651,247.7617188 651,245 L651,214 C651,211.2382813 648.7617188,209 646,209 Z M501,209 Z M501,209" /></clipPath>
<path d="M483,229.953125 L483,191 C483,188.7929688 481.2070313,187 479,187 L474,187" style="fill:none;stroke:rgb(127,127,127)" clip-path="url(#clip76)" />
<clipPath id="clip77"><path d="M330,160 L653,160 L653,275 L330,275 Z M501,209 C498.2382813,209 496,211.2382813 496,214 L496,245 C496,247.7617188 498.2382813,250 501,250 L646,250 C648.7617188,250 651,247.7617188 651,245 L651,214 C651,211.2382813 648.7617188,209 646,209 Z M501,209 Z M501,209" /></clipPath>
<path d="M483,229.953125 L483,220 C483,217.7929688 481.2070313,216 479,216 L474,216" style="fill:none;stroke:rgb(127,127,127)" clip-path="url(#clip77)" />
<clipPath id="clip78"><path d="M330,160 L653,160 L653,275 L330,275 Z M501,209 C498.2382813,209 496,211.2382813 496,214 L496,245 C496,247.7617188 498.2382813,250 501,250 L646,250 C648.7617188,250 651,247.7617188 651,245 L651,214 C651,211.2382813 648.7617188,209 646,209 Z M501,209 Z M501,209" /></clipPath>
<path d="M483,229.953125 L483,241 C483,243.2070313 481.2070313,245 479,245 L474,245" style="fill:none;stroke:rgb(127,127,127)" clip-path="url(#clip78)" />
<clipPath id="clip79"><path d="M330,160 L653,160 L653,275 L330,275 Z M501,209 C498.2382813,209 496,211.2382813 496,214 L496,245 C496,247.7617188 498.2382813,250 501,250 L646,250 C648.7617188,250 651,247.7617188 651,245 L651,214 C651,211.2382813 648.7617188,209 646,209 Z M501,209 Z M501,209" /></clipPath>
<path d="M483,229.953125 L483,270 C483,272.2070313 481.2070313,274 479,274 L474,274" style="fill:none;stroke:rgb(127,127,127)" clip-path="url(#clip79)" />
<clipPath id="clip80"><path d="M329,159 L654,159 L654,276 L329,276 L329,159 Z" /></clipPath>
<path d="M496,229.890625 L483,229.953125" style="fill:none;stroke:rgb(127,127,127)" clip-path="url(#clip80)" />
<clipPath id="clip81"><path d="M494,207 L654,207 L654,253 L494,253 L494,207 Z" /></clipPath>
<path d="M501,209 C498.2382813,209 496,211.2382813 496,214 L496,245 C496,247.7617188 498.2382813,250 501,250 L646,250 C648.7617188,250 651,247.7617188 651,245 L651,214 C651,211.2382813 648.7617188,209 646,209 Z M501,209" style="fill:rgb(254,244,236);stroke:none" clip-path="url(#clip81)" />
<clipPath id="clip82"><path d="M494,207 L654,207 L654,253 L494,253 L494,207 Z" /></clipPath>
<path d="M501,209 C498.2382813,209 496,211.2382813 496,214 L496,245 C496,247.7617188 498.2382813,250 501,250 L646,250 C648.7617188,250 651,247.7617188 651,245 L651,214 C651,211.2382813 648.7617188,209 646,209 Z M501,209" style="fill:none;stroke:rgb(141,134,126)" clip-path="url(#clip82)" />
<text x="510" y="232" style="font:13px Open Sans">Communication</text>
<clipPath id="clip83"><path d="M483,224 L496,224 L496,237 L483,237 L483,224 Z" /></clipPath>
<path d="M493.5,230 C493.5,227.515625 491.484375,225.5 489,225.5 C486.515625,225.5 484.5,227.515625 484.5,230 C484.5,232.484375 486.515625,234.5 489,234.5 C491.484375,234.5 493.5,232.484375 493.5,230 Z M493.5,230" style="fill:rgb(250,250,250);stroke:none" clip-path="url(#clip83)" />
<clipPath id="clip84"><path d="M483,224 L496,224 L496,237 L483,237 L483,224 Z" /></clipPath>
<path d="M493.5,230 C493.5,227.515625 491.484375,225.5 489,225.5 C486.515625,225.5 484.5,227.515625 484.5,230 C484.5,232.484375 486.515625,234.5 489,234.5 C491.484375,234.5 493.5,232.484375 493.5,230 Z M493.5,230" style="fill:none;stroke:rgb(127,127,127)" clip-path="url(#clip84)" />
<clipPath id="clip85"><path d="M483,224 L496,224 L496,237 L483,237 L483,224 Z" /></clipPath>
<path d="M487,230 L491,230" style="fill:none;stroke:rgb(150,160,200)" clip-path="url(#clip85)" />
<clipPath id="clip86"><path d="M329,159 L477,159 L477,189 L329,189 L329,159 Z" /></clipPath>
<path d="M331,187 L474,187 Z M331,187" style="fill:none;stroke:rgb(127,127,127)" clip-path="url(#clip86)" />
<text x="342" y="176" style="font:10px Open Sans">Symbolic interaction</text>
<clipPath id="clip87"><path d="M398,188 L477,188 L477,218 L398,218 L398,188 Z" /></clipPath>
<path d="M400,216 L474,216 Z M400,216" style="fill:none;stroke:rgb(127,127,127)" clip-path="url(#clip87)" />
<text x="411" y="205" style="font:10px Open Sans">Interests</text>
<clipPath id="clip88"><path d="M401,217 L477,217 L477,247 L401,247 L401,217 Z" /></clipPath>
<path d="M403,245 L474,245 Z M403,245" style="fill:none;stroke:rgb(127,127,127)" clip-path="url(#clip88)" />
<text x="414" y="234" style="font:10px Open Sans">Hobbies</text>
<clipPath id="clip89"><path d="M380,246 L477,246 L477,276 L380,276 L380,246 Z" /></clipPath>
<path d="M382,274 L474,274 Z M382,274" style="fill:none;stroke:rgb(127,127,127)" clip-path="url(#clip89)" />
<text x="393" y="263" style="font:10px Open Sans">Preferences</text>
<clipPath id="clip90"><path d="M269,15 L703,15 L703,130 L269,130 Z M453,64 C450.2382813,64 448,66.2382813 448,69 L448,100 C448,102.7617188 450.2382813,105 453,105 L696,105 C698.7617188,105 701,102.7617188 701,100 L701,69 C701,66.2382813 698.7617188,64 696,64 Z M453,64 Z M453,64" /></clipPath>
<path d="M435,85.1992188 L435,46 C435,43.7929688 433.2070313,42 431,42 L426,42" style="fill:none;stroke:rgb(127,127,127)" clip-path="url(#clip90)" />
<clipPath id="clip91"><path d="M269,15 L703,15 L703,130 L269,130 Z M453,64 C450.2382813,64 448,66.2382813 448,69 L448,100 C448,102.7617188 450.2382813,105 453,105 L696,105 C698.7617188,105 701,102.7617188 701,100 L701,69 C701,66.2382813 698.7617188,64 696,64 Z M453,64 Z M453,64" /></clipPath>
<path d="M435,85.1992188 L435,75 C435,72.7929688 433.2070313,71 431,71 L426,71" style="fill:none;stroke:rgb(127,127,127)" clip-path="url(#clip91)" />
<clipPath id="clip92"><path d="M269,15 L703,15 L703,130 L269,130 Z M453,64 C450.2382813,64 448,66.2382813 448,69 L448,100 C448,102.7617188 450.2382813,105 453,105 L696,105 C698.7617188,105 701,102.7617188 701,100 L701,69 C701,66.2382813 698.7617188,64 696,64 Z M453,64 Z M453,64" /></clipPath>
<path d="M435,85.1992188 L435,96 C435,98.2070313 433.2070313,100 431,100 L426,100" style="fill:none;stroke:rgb(127,127,127)" clip-path="url(#clip92)" />
<clipPath id="clip93"><path d="M269,15 L703,15 L703,130 L269,130 Z M453,64 C450.2382813,64 448,66.2382813 448,69 L448,100 C448,102.7617188 450.2382813,105 453,105 L696,105 C698.7617188,105 701,102.7617188 701,100 L701,69 C701,66.2382813 698.7617188,64 696,64 Z M453,64 Z M453,64" /></clipPath>
<path d="M435,85.1992188 L435,125 C435,127.2070313 433.2070313,129 431,129 L426,129" style="fill:none;stroke:rgb(127,127,127)" clip-path="url(#clip93)" />
<clipPath id="clip94"><path d="M268,14 L704,14 L704,131 L268,131 L268,14 Z" /></clipPath>
<path d="M448,85.1367188 L435,85.1992188" style="fill:none;stroke:rgb(127,127,127)" clip-path="url(#clip94)" />
<clipPath id="clip95"><path d="M446,62 L704,62 L704,108 L446,108 L446,62 Z" /></clipPath>
<path d="M453,64 C450.2382813,64 448,66.2382813 448,69 L448,100 C448,102.7617188 450.2382813,105 453,105 L696,105 C698.7617188,105 701,102.7617188 701,100 L701,69 C701,66.2382813 698.7617188,64 696,64 Z M453,64" style="fill:rgb(254,244,236);stroke:none" clip-path="url(#clip95)" />
<clipPath id="clip96"><path d="M446,62 L704,62 L704,108 L446,108 L446,62 Z" /></clipPath>
<path d="M453,64 C450.2382813,64 448,66.2382813 448,69 L448,100 C448,102.7617188 450.2382813,105 453,105 L696,105 C698.7617188,105 701,102.7617188 701,100 L701,69 C701,66.2382813 698.7617188,64 696,64 Z M453,64" style="fill:none;stroke:rgb(141,134,126)" clip-path="url(#clip96)" />
<text x="462" y="87" style="font:13px Open Sans">Difference to physical world</text>
<clipPath id="clip97"><path d="M435,79 L448,79 L448,92 L435,92 L435,79 Z" /></clipPath>
<path d="M445.5,85 C445.5,82.515625 443.484375,80.5 441,80.5 C438.515625,80.5 436.5,82.515625 436.5,85 C436.5,87.484375 438.515625,89.5 441,89.5 C443.484375,89.5 445.5,87.484375 445.5,85 Z M445.5,85" style="fill:rgb(250,250,250);stroke:none" clip-path="url(#clip97)" />
<clipPath id="clip98"><path d="M435,79 L448,79 L448,92 L435,92 L435,79 Z" /></clipPath>
<path d="M445.5,85 C445.5,82.515625 443.484375,80.5 441,80.5 C438.515625,80.5 436.5,82.515625 436.5,85 C436.5,87.484375 438.515625,89.5 441,89.5 C443.484375,89.5 445.5,87.484375 445.5,85 Z M445.5,85" style="fill:none;stroke:rgb(127,127,127)" clip-path="url(#clip98)" />
<clipPath id="clip99"><path d="M435,79 L448,79 L448,92 L435,92 L435,79 Z" /></clipPath>
<path d="M439,85 L443,85" style="fill:none;stroke:rgb(150,160,200)" clip-path="url(#clip99)" />
<clipPath id="clip100"><path d="M268,14 L429,14 L429,44 L268,44 L268,14 Z" /></clipPath>
<path d="M270,42 L426,42 Z M270,42" style="fill:none;stroke:rgb(127,127,127)" clip-path="url(#clip100)" />
<text x="281" y="31" style="font:10px Open Sans">Reach - many-to-many</text>
<clipPath id="clip101"><path d="M351,43 L429,43 L429,73 L351,73 L351,43 Z" /></clipPath>
<path d="M353,71 L426,71 Z M353,71" style="fill:none;stroke:rgb(127,127,127)" clip-path="url(#clip101)" />
<text x="364" y="60" style="font:10px Open Sans">Distance</text>
<clipPath id="clip102"><path d="M343,72 L429,72 L429,102 L343,102 L343,72 Z" /></clipPath>
<path d="M345,100 L426,100 Z M345,100" style="fill:none;stroke:rgb(127,127,127)" clip-path="url(#clip102)" />
<text x="356" y="89" style="font:10px Open Sans">Openness</text>
<clipPath id="clip103"><path d="M269,101 L429,101 L429,131 L269,131 L269,101 Z" /></clipPath>
<path d="M271,129 L426,129 Z M271,129" style="fill:none;stroke:rgb(127,127,127)" clip-path="url(#clip103)" />
<text x="282" y="118" style="font:10px Open Sans">Geographical freedom</text>
</svg>
